<svg xmlns="http://www.w3.org/2000/svg" width="144" height="118" viewBox="0 0 144 118">
    <g fill="#FFF" fill-rule="evenodd" stroke="none" stroke-opacity="0" stroke-width="5" opacity=".946">
        <path d="M95.55 42.5h6.098l.566.315a16.032 16.032 0 0 0 15.572 0l.566-.315H125c11.874 0 21.5 9.626 21.5 21.5v12.035a22.5 22.5 0 0 1-16.151 21.586l-2.777.817-4.466.788a77.5 77.5 0 0 1-11.939 1.164l-2.641.052.094-2.64c.007-.21.01-.419.01-.628V81.289c0-10.337-8.066-18.862-18.335-19.466l-5.535-.325 3.909-3.933a23.428 23.428 0 0 0 6.554-12.947l.328-2.118zm-.192-4.101a23.447 23.447 0 0 0-7.991-15.179l-.847-.733-.017-1.12A23.924 23.924 0 0 1 86.5 21C86.5 8.021 97.021-2.5 110-2.5S133.5 8.021 133.5 21 122.979 44.5 110 44.5a23.4 23.4 0 0 1-13.606-4.337l-.914-.65-.122-1.114zm-46.581 6.22a23.427 23.427 0 0 0 6.53 12.921l4.042 4.08-5.74.178c-10.507.327-18.883 8.951-18.883 19.49v16.145c0 .134.002.268.005.402l.06 2.605-2.606-.049a77.5 77.5 0 0 1-11.288-1.04l-5.478-.913-2.13-.666A22.5 22.5 0 0 1-2.5 76.296V64c0-11.874 9.626-21.5 21.5-21.5h6.648l.566.315a16.032 16.032 0 0 0 15.572 0l.566-.315h6.097l.328 2.118zm7.856-21.399a23.447 23.447 0 0 0-7.99 15.179l-.123 1.114-.914.65A23.4 23.4 0 0 1 34 44.5c-12.979 0-23.5-10.521-23.5-23.5S21.021-2.5 34-2.5 57.5 8.021 57.5 21c0 .123 0 .245-.003.368l-.017 1.12-.847.732z"/>
        <path d="M72 64.5c-12.979 0-23.5-10.521-23.5-23.5S59.021 17.5 72 17.5 95.5 28.021 95.5 41 84.979 64.5 72 64.5zm16.428 49.062l.138-.024-.271.064.133-.04zM57 62.5h6.648l.566.315a16.032 16.032 0 0 0 15.572 0l.566-.315H87c11.874 0 21.5 9.626 21.5 21.5v12.035a22.5 22.5 0 0 1-16.151 21.586l-2.777.817-4.466.788a77.5 77.5 0 0 1-26.21.125l-5.477-.913-2.13-.666A22.5 22.5 0 0 1 35.5 96.296V84c0-11.874 9.626-21.5 21.5-21.5z"/>
    </g>
</svg>
