<svg xmlns="http://www.w3.org/2000/svg" width="96" height="106" viewBox="0 0 96 106">
    <path fill="#FFF" fill-rule="evenodd" d="M40.09 20.966V49.53h10.693c11.5 0 17.871-5.346 17.871-14.282 0-8.862-6.299-14.282-17.724-14.282H40.09zm23.759 71.363h-23.76V102a4 4 0 0 1-4 4H17.284a4 4 0 0 1-4-4v-9.67H4.76a4 4 0 0 1-4-4v-7.528a4 4 0 0 1 4-4h8.524V68.72H4.76a4 4 0 0 1-4-4V53.97a4 4 0 0 1 4-4h8.524V8.312a8 8 0 0 1 8-8h37.923c21.826 0 36.548 14.209 36.548 34.57 0 20.068-15.674 34.35-38.233 34.35H40.09v7.57h23.759a4 4 0 0 1 4 4v7.527a4 4 0 0 1-4 4z" opacity=".9"/>
</svg>
