<?xml version="1.0" encoding="utf-8"?>
<!-- Generator: Adobe Illustrator 19.0.0, SVG Export Plug-In . SVG Version: 6.00 Build 0)  -->
<svg version="1.1" id="Слой_1" xmlns="http://www.w3.org/2000/svg" xmlns:xlink="http://www.w3.org/1999/xlink" x="0px" y="0px"
	 viewBox="5.5 0 16 16.5" style="enable-background:new 5.5 0 16 16.5;" xml:space="preserve">
<g>
	<g>
		<path class="st0" d="M19,16.5H8c-1.4,0-2.5-1.1-2.5-2.5V4c0-1.4,1.1-2.5,2.5-2.5h11c1.4,0,2.5,1.1,2.5,2.5v10
			C21.5,15.4,20.4,16.5,19,16.5z M8,2.5C7.2,2.5,6.5,3.2,6.5,4v10c0,0.8,0.7,1.5,1.5,1.5h11c0.8,0,1.5-0.7,1.5-1.5V4
			c0-0.8-0.7-1.5-1.5-1.5H8z"/>
	</g>
	<g>
		<path class="st0" d="M21,7.5H6C5.7,7.5,5.5,7.3,5.5,7S5.7,6.5,6,6.5h15c0.3,0,0.5,0.2,0.5,0.5S21.3,7.5,21,7.5z M16.5,5
			C16.2,5,16,4.8,16,4.5v-4C16,0.2,16.2,0,16.5,0S17,0.2,17,0.5v4C17,4.8,16.8,5,16.5,5z M10.5,5C10.2,5,10,4.8,10,4.5v-4
			C10,0.2,10.2,0,10.5,0S11,0.2,11,0.5v4C11,4.8,10.8,5,10.5,5z"/>
	</g>
</g>
</svg>
