<?xml version="1.0" encoding="utf-8"?>
<!-- Generator: Adobe Illustrator 19.0.0, SVG Export Plug-In . SVG Version: 6.00 Build 0)  -->
<svg version="1.1" id="Слой_1" xmlns="http://www.w3.org/2000/svg" xmlns:xlink="http://www.w3.org/1999/xlink" x="0px" y="0px"
	 viewBox="1 0 18 17" style="enable-background:new 1 0 18 17;" xml:space="preserve">

<g>
	<g>
		<path class="st1" d="M5,2C3.3,2,2,3.3,2,5v8c0,1.7,1.3,3,3,3h8c1.7,0,3-1.3,3-3V5c0-1.7-1.3-3-3-3H5z M5,1h8c2.2,0,4,1.8,4,4v8
			c0,2.2-1.8,4-4,4H5c-2.2,0-4-1.8-4-4V5C1,2.8,2.8,1,5,1z"/>
		<path class="st1" d="M9,11.2l8.6-10.5c0.2-0.2,0.5-0.2,0.7-0.1s0.2,0.5,0.1,0.7L9,12.8L3.6,6.3C3.4,6.1,3.5,5.8,3.7,5.6
			c0.2-0.2,0.5-0.1,0.7,0.1L9,11.2z"/>
	</g>
</g>
</svg>
