<?xml version="1.0" encoding="utf-8"?>
<!-- Generator: Adobe Illustrator 19.0.0, SVG Export Plug-In . SVG Version: 6.00 Build 0)  -->
<svg version="1.1" id="Шар_1" xmlns="http://www.w3.org/2000/svg" xmlns:xlink="http://www.w3.org/1999/xlink" x="0px" y="0px"
	 viewBox="0 0 49.2 51.6" style="enable-background:new 0 0 49.2 51.6;" xml:space="preserve">
<style type="text/css">
	.st0{clip-path:url(#SVGID_2_);}
</style>
<g>
	<defs>
		<rect id="SVGID_1_" y="0" width="49.2" height="51.6"/>
	</defs>
	<clipPath id="SVGID_2_">
		<use xlink:href="#SVGID_1_"  style="overflow:visible;"/>
	</clipPath>
	<path class="st0" d="M49,19.2c-0.4-0.4-1-0.4-1.4,0L20.2,46.5c-2,2-4.7,3.1-7.6,3.1c-2.9,0-5.6-1.1-7.6-3.1c-2-2-3.1-4.7-3.1-7.6
		c0-2.9,1.1-5.6,3.1-7.6L32.4,4.1c2.9-2.9,7.4-2.7,10.6,0.4c3.1,3.1,3.3,7.7,0.4,10.6L17.8,40.7c-1.4,1.4-3.8,1.4-5.2,0
		c-1.4-1.4-1.4-3.8,0-5.2l17.4-17.4c0.4-0.4,0.4-1,0-1.4c-0.4-0.4-1-0.4-1.4,0L11.1,34.1c-2.2,2.2-2.2,5.8,0,8c2.2,2.2,5.8,2.2,8,0
		l25.6-25.6c3.7-3.7,3.5-9.5-0.4-13.4C40.5-0.9,34.7-1,31,2.7L3.7,30c-2.4,2.4-3.7,5.6-3.7,9c0,3.4,1.3,6.6,3.7,9
		c2.4,2.4,5.6,3.7,9,3.7c3.4,0,6.6-1.3,9-3.7L49,20.6C49.3,20.2,49.3,19.6,49,19.2"/>
</g>
</svg>
