<svg xmlns="http://www.w3.org/2000/svg" width="20" height="16" viewBox="0 0 20 16">
    <path fill="#000" fill-rule="nonzero" d="M18.72.03H1.24C.557.03 0 .573 0 1.239v1.42c0 .666.557 1.208 1.241 1.208h.582l6.415 6.239v5.462c0 .163.1.31.255.372a.424.424 0 0 0 .451-.088l2.673-2.599a.397.397 0 0 0 .121-.285v-2.862l6.416-6.24h.566c.684 0 1.241-.54 1.241-1.206V1.238c0-.666-.557-1.207-1.241-1.207zm-7.688 9.624a.395.395 0 0 0-.121.288V12.8l-1.845 1.794V9.94a.396.396 0 0 0-.122-.286L2.993 3.866h13.99l-5.951 5.788zm8.101-6.995a.409.409 0 0 1-.413.402H1.24a.409.409 0 0 1-.413-.402V1.238c0-.222.185-.403.413-.403H18.72c.228 0 .413.181.413.403v1.42z"/>
</svg>
