<svg xmlns="http://www.w3.org/2000/svg" width="16" height="26" viewBox="0 0 16 26">
    <path fill-rule="nonzero" d="M15.781 11.546c-.28-.378-.771-.605-1.316-.605H9.031l1.584-10c.064-.405-.227-.775-.706-.9-.48-.124-.981.04-1.22.398L.185 13.23c-.258.388-.246.846.034 1.225.28.378.771.605 1.316.605h5.434l-1.584 10c-.064.405.227.775.706.9.108.028.216.041.323.041.368 0 .712-.161.897-.44l8.504-12.789a1.032 1.032 0 0 0-.034-1.225zm-.888.823L6.438 25.084l1.646-10.396a.373.373 0 0 0-.127-.334.584.584 0 0 0-.393-.144h-6.03a.5.5 0 0 1-.416-.191.325.325 0 0 1-.01-.388L9.561.916 7.916 11.312c-.019.12.027.242.127.334.1.091.242.144.393.144h6.03a.5.5 0 0 1 .416.191c.042.058.128.21.01.388z"/>
</svg>
