<?xml version="1.0" encoding="utf-8"?>
<!-- Generator: Adobe Illustrator 19.0.0, SVG Export Plug-In . SVG Version: 6.00 Build 0)  -->
<svg version="1.1" id="Слой_1" xmlns="http://www.w3.org/2000/svg" xmlns:xlink="http://www.w3.org/1999/xlink" x="0px" y="0px"
	 viewBox="8.5 -1.5 10 20" style="enable-background:new 8.5 -1.5 10 20;" xml:space="preserve">
<g>
	<g>
		<path class="st0" d="M13.5,18.5c-0.2,0-0.3-0.1-0.4-0.3l-4.5-8c-0.1-0.2-0.1-0.3,0-0.5S8.8,9.5,9,9.5h9c0.2,0,0.3,0.1,0.4,0.2
			s0.1,0.3,0,0.5l-4.5,8C13.8,18.4,13.7,18.5,13.5,18.5z M9.9,10.5l3.6,6.5l3.6-6.5H9.9z M18,7.5H9c-0.2,0-0.3-0.1-0.4-0.2
			s-0.1-0.3,0-0.5l4.5-8c0.2-0.3,0.7-0.3,0.9,0l4.5,8c0.1,0.2,0.1,0.3,0,0.5S18.2,7.5,18,7.5z M9.9,6.5h7.3L13.5,0L9.9,6.5z"/>
	</g>
</g>
</svg>
