<svg xmlns="http://www.w3.org/2000/svg" width="8" height="12" viewBox="0 0 8 12">
    <path fill="#FFF" fill-rule="evenodd" stroke="none" stroke-opacity="0" stroke-width="5" d="M4 7.46A4.975 4.975 0 0 1-.97 2.48 4.975 4.975 0 0 1 4-2.5a4.975 4.975 0 0 1 4.97 4.98A4.975 4.975 0 0 1 4 7.46zM4 3.51l.407-.228H6a4.5 4.5 0 0 1 4.5 4.5v1.36a5.292 5.292 0 0 1-3.79 5.075l-.135.04-.138.024a14.266 14.266 0 0 1-4.854.024l-.285-.048-.166-.052A5.189 5.189 0 0 1-2.5 9.254V7.78a4.5 4.5 0 0 1 4.5-4.5h1.593L4 3.51z"/>
</svg>
